# xmcd CD database file
#
# Track frame offsets:
#	150
#	18025
#	39525
#	57183
#	72785
#	92588
#	105948
#	121275
#	139290
#	159208
#
# Disc length: 2409 seconds
#
# Revision: 0
# Processed by: cddbd v1.5.1PL2 Copyright (c) Steve Scherf et al.
# Submitted via: CDex 1.51
#
DISCID=7209670a
DTITLE=山部善次郎 - Naturally
DYEAR=1900
DGENRE=Rock
TTITLE0=Country Boy
TTITLE1=倒れかけた君
TTITLE2=Modern Boy
TTITLE3=もう、たくさん
TTITLE4=君は笑うに決ってる
TTITLE5=Wild One
TTITLE6=One Night Love
TTITLE7=色あせた恋
TTITLE8=Bus Stop
TTITLE9=All Night Long
EXTD=
EXTT0=
EXTT1=
EXTT2=
EXTT3=
EXTT4=
EXTT5=
EXTT6=
EXTT7=
EXTT8=
EXTT9=
PLAYORDER=
